<?xml version="1.0" encoding="utf-8"?>
<svg version="1.0" width="1925.000000pt" height="363.000000pt" viewBox="0 0 1925.000000 363.000000" preserveAspectRatio="xMidYMid meet" xmlns="http://www.w3.org/2000/svg">
  <g transform="translate(0.000000,363.000000) scale(0.100000,-0.100000)" fill="#000000" stroke="none">
    <path d="M 5867.525 2928.494 C 5638.525 2910.494 5475.525 2843.494 5332.525 2708.494 C 5127.525 2517.494 5027.525 2263.494 5027.525 1933.494 C 5027.525 1671.494 5083.525 1459.494 5197.525 1289.494 C 5265.525 1188.494 5390.525 1072.494 5483.525 1024.494 C 5650.525 936.494 5755.525 916.494 5997.525 923.494 C 6187.525 928.494 6280.525 950.494 6422.525 1023.494 C 6539.525 1083.494 6684.525 1231.494 6749.525 1355.494 C 6830.525 1513.494 6865.525 1658.494 6874.525 1875.494 C 6898.525 2479.494 6574.525 2890.494 6042.525 2928.494 C 5993.525 2932.494 5914.525 2932.494 5867.525 2928.494 Z M 6110.525 2714.494 C 6225.525 2688.494 6302.525 2645.494 6387.525 2560.494 C 6471.525 2476.494 6517.525 2404.494 6553.525 2302.494 C 6672.525 1958.494 6615.525 1526.494 6422.525 1312.494 C 6359.525 1243.494 6279.525 1185.494 6202.525 1153.494 C 6056.525 1092.494 5812.525 1097.494 5681.525 1163.494 C 5561.525 1224.494 5451.525 1333.494 5392.525 1451.494 C 5271.525 1688.494 5266.525 2125.494 5380.525 2363.494 C 5442.525 2493.494 5542.525 2601.494 5660.525 2666.494 C 5768.525 2725.494 5967.525 2746.494 6110.525 2714.494 Z" style="transform-box: fill-box; transform-origin: 50% 50%;"/>
    <path d="M 368.525 2906.494 C 309.525 2886.494 272.525 2849.494 253.525 2786.494 C 238.525 2740.494 237.525 2647.494 239.525 1868.494 C 242.525 1038.494 243.525 1001.494 261.525 981.494 C 294.525 945.494 342.525 935.494 393.525 955.494 C 417.525 964.494 442.525 980.494 447.525 990.494 C 453.525 1002.494 457.525 1307.494 457.525 1826.494 C 457.525 2534.494 459.525 2642.494 471.525 2630.494 C 479.525 2622.494 529.525 2518.494 583.525 2400.494 C 993.525 1492.494 1182.525 1080.494 1203.525 1052.494 C 1236.525 1010.494 1276.525 990.494 1329.525 990.494 C 1378.525 990.494 1427.525 1016.494 1453.525 1054.494 C 1467.525 1077.494 1602.525 1370.494 2043.525 2342.494 L 2182.525 2650.494 L 2187.525 1832.494 C 2191.525 1217.494 2195.525 1010.494 2204.525 994.494 C 2216.525 972.494 2274.525 940.494 2299.525 940.494 C 2306.525 940.494 2331.525 949.494 2354.525 959.494 C 2389.525 975.494 2398.525 985.494 2407.525 1019.494 C 2414.525 1047.494 2417.525 1319.494 2415.525 1912.494 L 2412.525 2765.494 L 2390.525 2806.494 C 2331.525 2916.494 2198.525 2953.494 2098.525 2887.494 C 2052.525 2856.494 2019.525 2794.494 1824.525 2360.494 C 1464.525 1560.494 1343.525 1294.494 1332.525 1282.494 C 1323.525 1272.494 1255.525 1415.494 1012.525 1962.494 C 843.525 2343.494 686.525 2691.494 663.525 2735.494 C 618.525 2823.494 578.525 2874.494 537.525 2895.494 C 495.525 2917.494 418.525 2921.494 368.525 2906.494 Z" style="transform-box: fill-box; transform-origin: 50% 50%;"/>
    <path d="M 9534.525 2902.494 C 9467.525 2857.494 9472.525 2928.494 9470.525 1935.494 C 9468.525 1232.494 9470.525 1030.494 9480.525 1011.494 C 9486.525 998.494 9505.525 977.494 9520.525 966.494 C 9548.525 946.494 9559.525 945.494 9895.525 945.494 C 10217.525 945.494 10250.525 947.494 10355.525 968.494 C 10581.525 1014.494 10744.525 1095.494 10872.525 1225.494 C 11027.525 1383.494 11104.525 1590.494 11114.525 1880.494 C 11123.525 2108.494 11091.525 2284.494 11015.525 2435.494 C 10890.525 2683.494 10700.525 2820.494 10387.525 2887.494 C 10280.525 2911.494 10248.525 2913.494 9917.525 2917.494 C 9580.525 2921.494 9561.525 2920.494 9534.525 2902.494 Z M 10238.525 2705.494 C 10425.525 2677.494 10531.525 2628.494 10644.525 2515.494 C 10710.525 2449.494 10734.525 2417.494 10767.525 2349.494 C 10844.525 2187.494 10871.525 2000.494 10848.525 1785.494 C 10815.525 1487.494 10680.525 1283.494 10454.525 1193.494 C 10336.525 1147.494 10277.525 1139.494 9990.525 1133.494 L 9717.525 1127.494 L 9717.525 1924.494 L 9717.525 2720.494 L 9930.525 2720.494 C 10063.525 2720.494 10177.525 2715.494 10238.525 2705.494 Z" style="transform-box: fill-box; transform-origin: 50% 50%;"/>
    <path d="M 13808.525 2903.494 C 13790.525 2894.494 13766.525 2872.494 13756.525 2856.494 C 13738.525 2826.494 13737.525 2786.494 13737.525 1931.494 C 13737.525 1052.494 13737.525 1037.494 13757.525 1005.494 C 13799.525 938.494 13784.525 939.494 14407.525 942.494 L 14969.525 945.494 L 14993.525 973.494 C 15028.525 1014.494 15027.525 1082.494 14991.525 1115.494 L 14964.525 1140.494 L 14471.525 1140.494 L 13977.525 1140.494 L 13977.525 1500.494 L 13977.525 1859.494 L 14426.525 1862.494 C 14863.525 1865.494 14876.525 1866.494 14903.525 1886.494 C 14940.525 1913.494 14950.525 1953.494 14932.525 1997.494 C 14906.525 2059.494 14899.525 2060.494 14412.525 2060.494 L 13977.525 2060.494 L 13977.525 2385.494 L 13977.525 2710.494 L 14435.525 2710.494 C 14850.525 2710.494 14895.525 2712.494 14927.525 2728.494 C 14992.525 2760.494 15006.525 2829.494 14958.525 2882.494 L 14929.525 2915.494 L 14385.525 2917.494 C 13894.525 2920.494 13839.525 2918.494 13808.525 2903.494 Z" style="transform-box: fill-box; transform-origin: 50% 50%;"/>
    <path d="M 17712.524 2905.494 C 17657.524 2885.494 17640.524 2860.494 17632.524 2787.494 C 17629.524 2753.494 17627.524 2345.494 17629.524 1880.494 C 17632.524 1063.494 17633.524 1034.494 17651.524 1003.494 C 17689.524 940.494 17692.524 940.494 18263.524 940.494 C 18840.524 940.494 18835.524 939.494 18863.524 1006.494 C 18880.524 1047.494 18876.524 1076.494 18848.524 1111.494 L 18829.524 1135.494 L 18355.524 1140.494 L 17882.524 1145.494 L 17877.524 1995.494 C 17871.524 2948.494 17876.524 2888.494 17800.524 2909.494 C 17754.524 2922.494 17761.524 2922.494 17712.524 2905.494 Z" style="transform-box: fill-box; transform-origin: 50% 50%;" transform="matrix(1, 0, 0, 1, -0.001, 0)"/>
  </g>
</svg>